<?xml version="1.0" encoding="UTF-8"?>
<!DOCTYPE svg PUBLIC "-//W3C//DTD SVG 1.1//EN" "http://www.w3.org/Graphics/SVG/1.1/DTD/svg11.dtd">
<svg xmlns="http://www.w3.org/2000/svg" version="1.1" width="512px" height="512px" style="shape-rendering:geometricPrecision; text-rendering:geometricPrecision; image-rendering:optimizeQuality; fill-rule:evenodd; clip-rule:evenodd" xmlns:xlink="http://www.w3.org/1999/xlink">
<g><path style="opacity:0.982" fill="#000000" d="M 493.5,-0.5 C 495.833,-0.5 498.167,-0.5 500.5,-0.5C 493.371,31.5765 485.371,63.7431 476.5,96C 477.566,97.159 477.233,97.9924 475.5,98.5C 336.887,137.819 198.221,176.819 59.5,215.5C 66.1159,190.124 72.1159,165.124 77.5,140.5C 79.3845,139.803 79.7178,138.803 78.5,137.5C 80.7728,130.184 83.1061,123.018 85.5,116C 213.345,79.2288 340.512,43.3955 467,8.5C 475.871,5.30545 484.704,2.30545 493.5,-0.5 Z"/></g>
<g><path style="opacity:1" fill="#e2200e" d="M 475.5,98.5 C 475.573,103.061 474.573,107.561 472.5,112C 465.953,141.101 458.953,169.934 451.5,198.5C 443.458,200.011 435.458,201.844 427.5,204C 296.614,241.61 165.614,278.776 34.5,315.5C 42.8282,282.187 51.1615,248.854 59.5,215.5C 198.221,176.819 336.887,137.819 475.5,98.5 Z"/></g>
<g><path style="opacity:0.994" fill="#fcc600" d="M 451.5,198.5 C 443.234,231.9 434.901,264.9 426.5,297.5C 378.277,311.973 331.11,325.306 285,337.5C 281.182,339.512 277.349,340.512 273.5,340.5C 266.373,342.032 259.373,344.032 252.5,346.5C 262.402,352.951 272.735,358.618 283.5,363.5C 286.693,368.877 289.027,374.543 290.5,380.5C 288.797,381.66 288.131,380.993 288.5,378.5C 271.567,369.699 254.901,360.366 238.5,350.5C 238.167,350.667 237.833,350.833 237.5,351C 242.948,357.395 247.781,364.228 252,371.5C 252.688,372.332 252.521,372.998 251.5,373.5C 241.053,366.859 230.22,360.859 219,355.5C 214.264,356.476 209.764,357.809 205.5,359.5C 201.374,360.715 197.374,362.048 193.5,363.5C 192.127,363.343 190.793,363.51 189.5,364C 202.737,377.075 216.404,389.575 230.5,401.5C 232.543,403.509 234.543,405.509 236.5,407.5C 236.859,409.371 237.859,410.871 239.5,412C 215.691,399.253 192.024,385.92 168.5,372C 164.852,371.163 161.519,371.663 158.5,373.5C 153.194,374.053 148.194,375.386 143.5,377.5C 132.814,379.629 122.481,382.629 112.5,386.5C 110.073,386.523 107.74,387.023 105.5,388C 106.167,388.667 106.833,389.333 107.5,390C 167.197,424.513 226.864,459.013 286.5,493.5C 277.667,491.748 269,489.414 260.5,486.5C 260.414,485.504 260.748,484.671 261.5,484C 208.272,453.558 155.272,422.892 102.5,392C 97.8774,390.156 93.2108,390.156 88.5,392C 87.944,392.383 87.6107,392.883 87.5,393.5C 82.4253,394.685 77.4253,396.018 72.5,397.5C 66.507,398.411 60.8403,400.077 55.5,402.5C 40.3767,406.031 25.3767,410.031 10.5,414.5C 18.0397,381.343 26.0397,348.343 34.5,315.5C 165.614,278.776 296.614,241.61 427.5,204C 435.458,201.844 443.458,200.011 451.5,198.5 Z"/></g>
<g><path style="opacity:0.98" fill="#f7b400" d="M 273.5,340.5 C 277.16,348.342 280.493,356.009 283.5,363.5C 272.735,358.618 262.402,352.951 252.5,346.5C 259.373,344.032 266.373,342.032 273.5,340.5 Z"/></g>
<g><path style="opacity:0.995" fill="#f9cb03" d="M 290.5,380.5 C 293.586,384.737 295.919,389.404 297.5,394.5C 295.863,395.218 294.197,395.384 292.5,395C 280.328,386.918 267.661,379.918 254.5,374C 256.959,377.75 259.292,381.583 261.5,385.5C 261.291,386.086 260.957,386.586 260.5,387C 262.007,387.837 262.507,389.004 262,390.5C 245.587,381.378 229.42,371.878 213.5,362C 211.091,360.293 208.425,359.46 205.5,359.5C 209.764,357.809 214.264,356.476 219,355.5C 230.22,360.859 241.053,366.859 251.5,373.5C 252.521,372.998 252.688,372.332 252,371.5C 247.781,364.228 242.948,357.395 237.5,351C 237.833,350.833 238.167,350.667 238.5,350.5C 254.901,360.366 271.567,369.699 288.5,378.5C 288.131,380.993 288.797,381.66 290.5,380.5 Z"/></g>
<g><path style="opacity:0.995" fill="#fad708" d="M 193.5,363.5 C 195.308,363.491 196.975,363.991 198.5,365C 225.003,380.752 251.67,396.252 278.5,411.5C 276.902,406.502 274.236,401.669 270.5,397C 270.833,396.833 271.167,396.667 271.5,396.5C 282.365,403.231 293.531,409.231 305,414.5C 305.383,413.944 305.883,413.611 306.5,413.5C 310.283,420.62 313.616,427.953 316.5,435.5C 315.429,437.378 314.762,439.044 314.5,440.5C 307.628,436.595 300.795,432.595 294,428.5C 294.172,431.351 295.339,433.851 297.5,436C 296.975,436.692 296.308,437.192 295.5,437.5C 274.147,425.134 252.813,412.801 231.5,400.5C 230.893,400.624 230.56,400.957 230.5,401.5C 216.404,389.575 202.737,377.075 189.5,364C 190.793,363.51 192.127,363.343 193.5,363.5 Z"/></g>
<g><path style="opacity:1" fill="#fad708" d="M 158.5,373.5 C 193.442,394.645 228.775,415.311 264.5,435.5C 265.298,435.043 265.631,434.376 265.5,433.5C 277.32,443.82 288.654,454.654 299.5,466C 297.831,466.122 296.165,465.788 294.5,465C 244.499,435.33 194.165,406.164 143.5,377.5C 148.194,375.386 153.194,374.053 158.5,373.5 Z"/></g>
<g><path style="opacity:0.993" fill="#fadd0a" d="M 143.5,377.5 C 194.165,406.164 244.499,435.33 294.5,465C 296.165,465.788 297.831,466.122 299.5,466C 288.654,454.654 277.32,443.82 265.5,433.5C 255.833,424.833 246.167,416.167 236.5,407.5C 234.543,405.509 232.543,403.509 230.5,401.5C 230.56,400.957 230.893,400.624 231.5,400.5C 252.813,412.801 274.147,425.134 295.5,437.5C 296.308,437.192 296.975,436.692 297.5,436C 295.339,433.851 294.172,431.351 294,428.5C 300.795,432.595 307.628,436.595 314.5,440.5C 314.762,439.044 315.429,437.378 316.5,435.5C 328.675,460.522 340.342,485.856 351.5,511.5C 350.833,511.5 350.167,511.5 349.5,511.5C 293.886,481.69 237.886,452.357 181.5,423.5C 158.659,410.912 135.659,398.579 112.5,386.5C 122.481,382.629 132.814,379.629 143.5,377.5 Z"/></g>
<g><path style="opacity:1" fill="#fad106" d="M 205.5,359.5 C 208.425,359.46 211.091,360.293 213.5,362C 229.42,371.878 245.587,381.378 262,390.5C 262.507,389.004 262.007,387.837 260.5,387C 260.957,386.586 261.291,386.086 261.5,385.5C 259.292,381.583 256.959,377.75 254.5,374C 267.661,379.918 280.328,386.918 292.5,395C 294.197,395.384 295.863,395.218 297.5,394.5C 300.739,400.648 303.739,406.981 306.5,413.5C 305.883,413.611 305.383,413.944 305,414.5C 293.531,409.231 282.365,403.231 271.5,396.5C 271.167,396.667 270.833,396.833 270.5,397C 274.236,401.669 276.902,406.502 278.5,411.5C 251.67,396.252 225.003,380.752 198.5,365C 196.975,363.991 195.308,363.491 193.5,363.5C 197.374,362.048 201.374,360.715 205.5,359.5 Z"/></g>
<g><path style="opacity:0.99" fill="#f7ba01" d="M 112.5,386.5 C 135.659,398.579 158.659,410.912 181.5,423.5C 180.761,423.369 180.094,423.536 179.5,424C 223.092,448.601 266.425,473.601 309.5,499C 308.906,499.464 308.239,499.631 307.5,499.5C 300.094,498.568 293.094,496.568 286.5,493.5C 226.864,459.013 167.197,424.513 107.5,390C 106.833,389.333 106.167,388.667 105.5,388C 107.74,387.023 110.073,386.523 112.5,386.5 Z"/></g>
<g><path style="opacity:0.99" fill="#faca03" d="M 260.5,486.5 C 251.204,484.596 242.204,481.929 233.5,478.5C 184.833,450.167 136.167,421.833 87.5,393.5C 87.6107,392.883 87.944,392.383 88.5,392C 93.2108,390.156 97.8774,390.156 102.5,392C 155.272,422.892 208.272,453.558 261.5,484C 260.748,484.671 260.414,485.504 260.5,486.5 Z"/></g>
<g><path style="opacity:1" fill="#f9d205" d="M 236.5,407.5 C 246.167,416.167 255.833,424.833 265.5,433.5C 265.631,434.376 265.298,435.043 264.5,435.5C 228.775,415.311 193.442,394.645 158.5,373.5C 161.519,371.663 164.852,371.163 168.5,372C 192.024,385.92 215.691,399.253 239.5,412C 237.859,410.871 236.859,409.371 236.5,407.5 Z"/></g>
<g><path style="opacity:0.985" fill="#fbd708" d="M 72.5,397.5 C 78.224,399.86 83.8907,402.527 89.5,405.5C 121.102,423.973 152.769,442.473 184.5,461C 187.971,463.072 191.638,464.572 195.5,465.5C 195.5,466.5 195.5,467.5 195.5,468.5C 178.47,463.367 161.47,458.367 144.5,453.5C 144.5,452.5 144.5,451.5 144.5,450.5C 141.763,449.969 139.096,449.136 136.5,448C 114.839,435.343 93.1724,422.676 71.5,410C 66.2263,407.189 60.893,404.689 55.5,402.5C 60.8403,400.077 66.507,398.411 72.5,397.5 Z"/></g>
<g><path style="opacity:0.963" fill="#fadd0a" d="M 55.5,402.5 C 60.893,404.689 66.2263,407.189 71.5,410C 93.1724,422.676 114.839,435.343 136.5,448C 139.096,449.136 141.763,449.969 144.5,450.5C 144.5,451.5 144.5,452.5 144.5,453.5C 99.4043,440.842 55.071,428.342 11.5,416C 10.944,415.617 10.6107,415.117 10.5,414.5C 25.3767,410.031 40.3767,406.031 55.5,402.5 Z"/></g>
<g><path style="opacity:0.984" fill="#f6b000" d="M 181.5,423.5 C 237.886,452.357 293.886,481.69 349.5,511.5C 347.833,511.5 346.167,511.5 344.5,511.5C 332.145,507.493 319.811,503.493 307.5,499.5C 308.239,499.631 308.906,499.464 309.5,499C 266.425,473.601 223.092,448.601 179.5,424C 180.094,423.536 180.761,423.369 181.5,423.5 Z"/></g>
<g><path style="opacity:1" fill="#f9d105" d="M 87.5,393.5 C 136.167,421.833 184.833,450.167 233.5,478.5C 221.113,475.565 208.446,472.232 195.5,468.5C 195.5,467.5 195.5,466.5 195.5,465.5C 191.638,464.572 187.971,463.072 184.5,461C 152.769,442.473 121.102,423.973 89.5,405.5C 83.8907,402.527 78.224,399.86 72.5,397.5C 77.4253,396.018 82.4253,394.685 87.5,393.5 Z"/></g>
</svg>
